<svg xmlns="http://www.w3.org/2000/svg" xmlns:xlink="http://www.w3.org/1999/xlink" data-name="Capa 1" viewBox="0 0 423 454.2"><defs><linearGradient id="a" x1="300.9" x2="71.6" y1="76.7" y2="76.7" gradientUnits="userSpaceOnUse"><stop offset="0" stop-color="#cb23e3" stop-opacity="0"/><stop offset="1" stop-color="#cb23e3"/></linearGradient><linearGradient xlink:href="#a" id="b" x1="165.9" x2="319.8" y1="347.4" y2="80.4"/><linearGradient id="c" x1="150.4" x2="325.9" y1="250.6" y2="430.7" gradientUnits="userSpaceOnUse"><stop offset="0" stop-color="#00a0ab" stop-opacity="0"/><stop offset="1" stop-color="#00a0ab"/></linearGradient></defs><path d="M384.9 125.3H117.2l-5.6-5.6-15-15.2-75.5-76.4h272.3l32 32.1 59.5 65.1z" style="fill:url(#a);stroke-width:0"/><path d="M384.9 125.3 272.2 290.1 202.5 392l-96.2-99.1L178.1 191l46.3-65.7 68.5-97.2h.5l32 32.1 59.5 65.1z" style="fill:url(#b);stroke-width:0"/><path d="M401.9 426.1H235.6L202.5 392l-96.2-99.1L178.1 191l94.1 99.1 59 62.2 70.7 73.8z" style="fill:url(#c);stroke-width:0"/><path d="M384.9 125.3 272.2 290.1 202.5 392" style="stroke-width:0;fill:none"/></svg>